<svg width="22" height="35" viewBox="0 0 22 35" fill="none" xmlns="http://www.w3.org/2000/svg">
<path d="M8.088 35H3.048C1.96 35 1.24 34.824 0.888 34.472C0.568 34.12 0.408 33.4 0.408 32.312V3.08C0.408 1.96 0.584 1.224 0.936 0.871999C1.288 0.487998 1.992 0.295998 3.048 0.295998H8.088V35ZM20.04 13.688V16.568C20.04 17.72 19.928 18.456 19.704 18.776C19.48 19.064 18.84 19.208 17.784 19.208H10.008V13.688H20.04ZM21.96 0.295998V4.424C21.96 5.512 21.784 6.232 21.432 6.584C21.08 6.904 20.344 7.064 19.224 7.064H10.008V0.295998H21.96Z" fill="#FDBA74"/>
</svg>
